# xmcd
#
# Track frame offsets:
#	150
#	12278
#	22525
#	34389
#	46315
#	58684
#	70184
#	83229
#	93980
#	105194
#	116780
#	128372
#	140540
#	152339
#	164699
#	175627
#	188397
#	200069
#	210845
#	221893
#
# Disc length: 3091
#
# Revision: 3
# Processed by: cddbd v1.5.1PL0 Copyright (c) Steve Scherf et al.
# Submitted via: audiograbber 1.83.01
# Normalized: r1:DSETVAR1,TDELIM( - ),TSWAP
#
DISCID=000c1114
DTITLE=Various Artist - The History of Country and Western Musik
DYEAR=1949
DGENRE=Country
TTITLE0=Hank Williams - Lost Highway
TTITLE1=Ann Jones - Give Me A Hundred Reasons
TTITLE2=Billy Briggs - Panhandle Shuffle
TTITLE3=Tiny Colbert - Holes In My Soles
TTITLE4=Texas Top Hands - You Can't Have Your Cake
TTITLE5=Hank Williams - My Bucket's Got A Hole In It
TTITLE6=Jimmie Revard - Holdin' The Sack
TTITLE7=Shorty Bates - You're There
TTITLE8=Lone Star Playboys - Steel Guitar Bounce
TTITLE9=Smiley Whitley - West Wind
TTITLE10=Tennessee Ernie Ford - Shootgun Boogie
TTITLE11=Leon Mc Auliffe - Take It Away Leon
TTITLE12=Hank Williams - Long Gone Lonesome Blues
TTITLE13=Lefty Frizzell - I Love You A Thousand Ways
TTITLE14=Jonny Hicks - Hamburger Hop
TTITLE15=Jonny Bond - Mean Mamma Boogie
TTITLE16=Tennessee Ernie Ford - Ill Never Be Free
TTITLE17=Hank Williams - Why Don't You Love Me
TTITLE18=Andy Reynolds - Beer Bottle Mama
TTITLE19=Lefty Frizzell - My Baby's Just Like Money
EXTD=
EXTT0=
EXTT1=
EXTT2=
EXTT3=
EXTT4=
EXTT5=
EXTT6=
EXTT7=
EXTT8=
EXTT9=
EXTT10=
EXTT11=
EXTT12=
EXTT13=
EXTT14=
EXTT15=
EXTT16=
EXTT17=
EXTT18=
EXTT19=
PLAYORDER=
